# xmcd CD database file
#
# Track frame offsets:
#	150
#	34808
#	49528
#	69538
#	85856
#	108509
#	128449
#
# Disc length: 1978 seconds
#
# Revision: 3
# Processed by: cddbd v1.5.2PL0 Copyright (c) Steve Scherf et al.
# Submitted via: CDex 1.51
#
DISCID=5207b807
DTITLE=The Animals - Raw Animals ~ Almost Grown
DYEAR=2006
DGENRE=Blues
TTITLE0=Bo Diddley  [1973]
TTITLE1=Let It Rock  [1973]
TTITLE2=Gotta Find My Baby  [1973]
TTITLE3=Dimples  [1973]
TTITLE4=Boom Boom  [1973]
TTITLE5=Almost Grown  [1973]
TTITLE6=C Jam Blues  [1973]
EXTD=YEAR: 2006
EXTT0=
EXTT1=
EXTT2=
EXTT3=
EXTT4=
EXTT5=
EXTT6=
PLAYORDER=
